<svg width="15" height="15" viewBox="0 0 15 15" fill="none" xmlns="http://www.w3.org/2000/svg">
<path d="M15 5.81285C15 5.95148 14.9219 6.10271 14.7656 6.26654L11.4934 9.61248L12.2686 14.3384C12.2746 14.3825 12.2776 14.4455 12.2776 14.5274C12.2776 14.6597 12.2461 14.7716 12.183 14.8629C12.1199 14.9543 12.0282 15 11.9081 15C11.7939 15 11.6737 14.9622 11.5475 14.8866L7.5 12.656L3.45252 14.8866C3.32031 14.9622 3.20012 15 3.09195 15C2.96575 15 2.87109 14.9543 2.80799 14.8629C2.74489 14.7716 2.71334 14.6597 2.71334 14.5274C2.71334 14.4896 2.71935 14.4266 2.73137 14.3384L3.50661 9.61248L0.225361 6.26654C0.0751202 6.09641 0 5.94518 0 5.81285C0 5.57971 0.168269 5.43478 0.504808 5.37807L5.03005 4.68809L7.05829 0.387524C7.17248 0.129175 7.31971 0 7.5 0C7.68029 0 7.82752 0.129175 7.94171 0.387524L9.96995 4.68809L14.4952 5.37807C14.8317 5.43478 15 5.57971 15 5.81285Z" fill="#FFE03A"/>
</svg>
