<svg width="16" height="15" viewBox="0 0 16 15" fill="none" xmlns="http://www.w3.org/2000/svg">
<path d="M15.25 5.81285C15.25 5.95148 15.1719 6.10271 15.0156 6.26654L11.7434 9.61248L12.5186 14.3384C12.5246 14.3825 12.5276 14.4455 12.5276 14.5274C12.5276 14.6597 12.4961 14.7716 12.433 14.8629C12.3699 14.9543 12.2782 15 12.1581 15C12.0439 15 11.9237 14.9622 11.7975 14.8866L7.75 12.656L3.70252 14.8866C3.57031 14.9622 3.45012 15 3.34195 15C3.21575 15 3.12109 14.9543 3.05799 14.8629C2.99489 14.7716 2.96334 14.6597 2.96334 14.5274C2.96334 14.4896 2.96935 14.4266 2.98137 14.3384L3.75661 9.61248L0.475361 6.26654C0.32512 6.09641 0.25 5.94518 0.25 5.81285C0.25 5.57971 0.418269 5.43478 0.754808 5.37807L5.28005 4.68809L7.30829 0.387524C7.42248 0.129175 7.56971 0 7.75 0C7.93029 0 8.07752 0.129175 8.19171 0.387524L10.22 4.68809L14.7452 5.37807C15.0817 5.43478 15.25 5.57971 15.25 5.81285Z" fill="#FFE03A"/>
</svg>
