<svg width="16" height="15" viewBox="0 0 16 15" fill="none" xmlns="http://www.w3.org/2000/svg">
<path d="M15.5 5.81285C15.5 5.95148 15.4219 6.10271 15.2656 6.26654L11.9934 9.61248L12.7686 14.3384C12.7746 14.3825 12.7776 14.4455 12.7776 14.5274C12.7776 14.6597 12.7461 14.7716 12.683 14.8629C12.6199 14.9543 12.5282 15 12.4081 15C12.2939 15 12.1737 14.9622 12.0475 14.8866L8 12.656L3.95252 14.8866C3.82031 14.9622 3.70012 15 3.59195 15C3.46575 15 3.37109 14.9543 3.30799 14.8629C3.24489 14.7716 3.21334 14.6597 3.21334 14.5274C3.21334 14.4896 3.21935 14.4266 3.23137 14.3384L4.00661 9.61248L0.725361 6.26654C0.57512 6.09641 0.5 5.94518 0.5 5.81285C0.5 5.57971 0.668269 5.43478 1.00481 5.37807L5.53005 4.68809L7.55829 0.387524C7.67248 0.129175 7.81971 0 8 0C8.18029 0 8.32752 0.129175 8.44171 0.387524L10.47 4.68809L14.9952 5.37807C15.3317 5.43478 15.5 5.57971 15.5 5.81285Z" fill="#FFE03A"/>
</svg>
