<svg width="16" height="15" viewBox="0 0 16 15" fill="none" xmlns="http://www.w3.org/2000/svg">
<path d="M15.75 5.81285C15.75 5.95148 15.6719 6.10271 15.5156 6.26654L12.2434 9.61248L13.0186 14.3384C13.0246 14.3825 13.0276 14.4455 13.0276 14.5274C13.0276 14.6597 12.9961 14.7716 12.933 14.8629C12.8699 14.9543 12.7782 15 12.6581 15C12.5439 15 12.4237 14.9622 12.2975 14.8866L8.25 12.656L4.20252 14.8866C4.07031 14.9622 3.95012 15 3.84195 15C3.71575 15 3.62109 14.9543 3.55799 14.8629C3.49489 14.7716 3.46334 14.6597 3.46334 14.5274C3.46334 14.4896 3.46935 14.4266 3.48137 14.3384L4.25661 9.61248L0.975361 6.26654C0.82512 6.09641 0.75 5.94518 0.75 5.81285C0.75 5.57971 0.918269 5.43478 1.25481 5.37807L5.78005 4.68809L7.80829 0.387524C7.92248 0.129175 8.06971 0 8.25 0C8.43029 0 8.57752 0.129175 8.69171 0.387524L10.72 4.68809L15.2452 5.37807C15.5817 5.43478 15.75 5.57971 15.75 5.81285Z" fill="#FFE03A"/>
</svg>
